<?xml version="1.0" encoding="UTF-8" standalone="no"?>
<svg width="277px" height="176px" viewBox="0 0 277 176" version="1.1" xmlns="http://www.w3.org/2000/svg" xmlns:xlink="http://www.w3.org/1999/xlink">
    <!-- Generator: Sketch 3.8.3 (29802) - http://www.bohemiancoding.com/sketch -->
    <title>logo-desktop</title>
    <desc>Created with Sketch.</desc>
    <defs></defs>
    <g id="Page-1" stroke="none" stroke-width="1" fill="none" fill-rule="evenodd">
        <g id="la-roche-tab-desktop" transform="translate(-306.000000, -485.000000)">
            <g id="logo-desktop" transform="translate(306.000000, 485.000000)">
                <path d="M0.883046417,150.956908 C0.883046417,150.956908 4.35941877,158.810369 53.4367666,159.544246 C96.8739793,160.193406 109.450414,149.506887 175.354979,158.439491 C230.714813,165.943253 277,154.565708 277,154.565708 L273.237086,109.599779 C273.237086,109.599779 231.747858,116.228307 177.693656,111.974287 C98.862827,105.770324 87.8830518,115.067403 44.4991607,112.850506 C7.46303789,110.958189 0,105 0,105 L0.883046417,150.956908 L0.883046417,150.956908 Z" id="Shape" fill="#FFFFFF"></path>
                <g id="Group" transform="translate(22.000000, 119.000000)" fill="#009FEA">
                    <path d="M13.8939149,23.1745185 L13.8939149,20.0911831 C12.6902441,22.2155729 10.6478185,23.4484356 8.05826987,23.4484356 C2.51475844,23.4484356 0.216841447,18.9610982 0.216841447,14.8155679 C0.216841447,10.6700377 2.4786182,6.18270034 8.05826987,6.18270034 C10.6478185,6.18270034 12.6907461,7.41556303 13.8939149,9.53995282 L13.8939149,0.358308087 L16.0091229,0.358308087 L16.0091229,23.1745185 L13.8939149,23.1745185 L13.8939149,23.1745185 Z M8.13155425,7.9638687 C4.33733088,7.9638687 2.36818969,11.0472041 2.36818969,14.8155679 C2.36818969,18.5839318 4.33733088,21.6672672 8.13155425,21.6672672 C11.9247737,21.6672672 13.8939149,18.5160419 13.8939149,14.8155679 C13.8939149,11.1155655 11.9247737,7.9638687 8.13155425,7.9638687 L8.13155425,7.9638687 Z" id="Shape"></path>
                    <path d="M21.2213488,15.5345414 C21.5852609,19.5433489 24.1025291,21.6667957 28.2245244,21.6667957 C29.9020339,21.6667957 31.5434032,21.46124 33.622471,20.9478223 L34.0601695,22.5927393 C32.0172419,23.1745185 29.9743144,23.4484356 28.2606647,23.4484356 C22.4973001,23.4484356 19.0323545,19.8177374 19.0323545,14.8155679 C19.0323545,10.1905649 22.0596016,6.18270034 27.2402048,6.18270034 C32.4193021,6.18270034 35.0816332,10.1905649 35.0816332,14.8155679 L35.0816332,15.5345414 L21.2213488,15.5345414 L21.2213488,15.5345414 Z M27.2402048,7.9638687 C23.7747572,7.9638687 21.5857629,10.2928713 21.2218507,13.8222059 L32.8936428,13.8222059 C32.6015092,10.2928713 30.7041465,7.9638687 27.2402048,7.9638687 L27.2402048,7.9638687 Z" id="Shape"></path>
                    <path d="M48.7531853,23.3800741 C46.0170678,23.3800741 44.1934915,22.0439621 44.1934915,18.7894875 L44.1934915,0.358308087 L46.3102053,0.358308087 L46.3102053,18.8927368 C46.3102053,20.8794609 47.1484582,21.6667957 48.899754,21.6667957 L50.467337,21.6667957 L50.467337,23.3800741 L48.7531853,23.3800741 L48.7531853,23.3800741 Z" id="Shape"></path>
                    <path d="M60.0214113,23.4484356 C54.8423139,23.4484356 51.7422844,19.440571 51.7422844,14.8155679 C51.7422844,10.1905649 54.8423139,6.18270034 60.0214113,6.18270034 C65.2005086,6.18270034 68.3015421,10.1905649 68.3015421,14.8155679 C68.3015421,19.440571 65.2005086,23.4484356 60.0214113,23.4484356 L60.0214113,23.4484356 Z M60.0214113,7.9638687 C56.2281918,7.9638687 53.8941346,10.739342 53.8941346,14.8155679 C53.8941346,18.8927368 56.2286937,21.6672672 60.0214113,21.6672672 C63.8156346,21.6672672 66.1863341,18.8932083 66.1863341,14.8155679 C66.1858321,10.739342 63.8156346,7.9638687 60.0214113,7.9638687 L60.0214113,7.9638687 Z" id="Shape"></path>
                    <path d="M89.9234452,23.1745185 L89.9234452,12.2456503 C89.9234452,9.40228708 88.6098478,8.06617508 85.656387,8.06617508 C82.7014204,8.06617508 79.7469556,10.498427 79.7469556,14.7132616 L79.7469556,23.1745185 L77.5951055,23.1745185 L77.5951055,6.49056242 L79.7469556,6.49056242 L79.7469556,9.60784278 C81.0239108,7.55275731 83.2124032,6.18270034 85.9480187,6.18270034 C89.9600874,6.18270034 92.0391551,8.5465908 92.0391551,12.109399 L92.0391551,23.1745185 L89.9234452,23.1745185 L89.9234452,23.1745185 Z" id="Shape"></path>
                    <path d="M108.193843,23.1745185 L108.193843,20.0232931 C106.916888,22.0783786 104.692255,23.4484356 101.95664,23.4484356 C97.9445709,23.4484356 95.8655032,21.119433 95.8655032,17.5566248 L95.8655032,6.49056242 L98.0173534,6.49056242 L98.0173534,17.3850141 C98.0173534,20.2283774 99.2933047,21.5984343 102.248271,21.5984343 C105.203238,21.5984343 108.194345,19.1661825 108.194345,14.9527622 L108.194345,6.49056242 L110.309553,6.49056242 L110.309553,23.1745185 L108.193843,23.1745185 L108.193843,23.1745185 Z" id="Shape"></path>
                    <path d="M115.520273,15.5345414 C115.884185,19.5433489 118.401453,21.6667957 122.523449,21.6667957 C124.200958,21.6667957 125.842327,21.46124 127.921395,20.9478223 L128.359094,22.5927393 C126.316166,23.1745185 124.273239,23.4484356 122.559589,23.4484356 C116.796224,23.4484356 113.331279,19.8177374 113.331279,14.8155679 C113.331279,10.1905649 116.358526,6.18270034 121.539129,6.18270034 C126.718226,6.18270034 129.380557,10.1905649 129.380557,14.8155679 L129.380557,15.5345414 L115.520273,15.5345414 L115.520273,15.5345414 Z M121.538627,7.9638687 C118.073179,7.9638687 115.884185,10.2928713 115.520273,13.8222059 L127.192065,13.8222059 C126.900433,10.2928713 125.003071,7.9638687 121.538627,7.9638687 L121.538627,7.9638687 Z" id="Shape"></path>
                    <polygon id="Shape" points="138.020083 23.1745185 135.904875 23.1745185 128.829419 6.49056242 130.981269 6.49056242 136.963483 21.0510716 142.980833 6.49056242 145.096041 6.49056242"></polygon>
                    <path d="M153.554363,23.4484356 C148.375266,23.4484356 145.275236,19.440571 145.275236,14.8155679 C145.275236,10.1905649 148.375266,6.18270034 153.554363,6.18270034 C158.73346,6.18270034 161.834494,10.1905649 161.834494,14.8155679 C161.834494,19.440571 158.73346,23.4484356 153.554363,23.4484356 L153.554363,23.4484356 Z M153.554363,7.9638687 C149.761144,7.9638687 147.427086,10.739342 147.427086,14.8155679 C147.427086,18.8927368 149.761646,21.6672672 153.554363,21.6672672 C157.348586,21.6672672 159.719286,18.8932083 159.719286,14.8155679 C159.719286,10.739342 157.348586,7.9638687 153.554363,7.9638687 L153.554363,7.9638687 Z" id="Shape"></path>
                </g>
                <g id="Group" transform="translate(7.000000, 37.000000)" fill="#FFFFFF">
                    <path d="M36.6397574,1.81002799 C35.3230773,2.58675457 33.4151538,3.44550507 30.9194531,4.38727979 C28.4217718,5.3300548 25.734437,6.27182952 22.8539825,7.2131041 C19.9725376,8.15637926 17.0787133,9.11215806 14.1705288,10.0814408 C11.2618491,11.0517238 8.73891367,11.9804948 6.59924652,12.8667533 C6.70868101,14.1421253 6.79088067,15.2359444 6.84584551,16.1502111 C6.90081034,17.0639776 6.969145,18.0617687 7.05233502,19.142584 C7.13453469,20.2228991 7.27021365,21.5532872 7.46333334,23.1327479 C7.6549675,24.7117085 7.94365668,26.831827 8.32841053,29.492103 C10.4680777,28.5503283 12.1957562,27.8161141 13.5124363,27.2889603 C14.8291165,26.7628068 16.2007615,26.2786656 17.6283617,25.8345361 C19.0549715,25.3914068 20.7415501,24.8927613 22.689088,24.3380995 C24.637121,23.7849382 27.2843463,23.0082116 30.6322495,22.0104206 C30.9060833,22.0664369 31.2348819,22.2469896 31.6191406,22.5510783 C32.0024089,22.8566674 32.3188281,23.2027684 32.5664175,23.5898813 C32.8130165,23.9784946 32.936316,24.3666079 32.936316,24.7537208 C32.936316,25.1413339 32.7436914,25.446923 32.3599279,25.6674873 C30.0558615,25.9455685 27.7919045,26.3741935 25.5705328,26.9558632 C23.3476756,27.538033 21.2491083,28.2027269 19.2738405,28.9509451 C17.2985727,29.6991634 15.4604693,30.4618859 13.7600257,31.237112 C12.0585917,32.0138386 10.5502774,32.7060405 9.23310201,33.3152182 C9.34253651,35.9209783 9.63023533,38.4422138 10.0971888,40.8799249 C10.5626568,43.3191364 11.195,45.5222791 11.990257,47.4888527 C12.785514,49.4569268 13.7189258,51.0778997 14.7880167,52.3517713 C15.8580978,53.6271433 17.0519737,54.3753616 18.3686538,54.5964261 C18.9712863,54.7079586 19.8215081,54.8039866 20.9203097,54.887511 C22.0171305,54.9705352 23.3065758,54.7909828 24.7886456,54.3468533 C26.2697251,53.903724 27.942934,53.0869857 29.8082721,51.8946379 C31.6731151,50.7032904 33.7315729,48.8602528 35.981665,46.3665253 C37.4627444,45.0366374 38.5333208,44.2884192 39.1914133,44.1218706 C39.8500009,43.9558221 39.9322006,44.2048948 39.4380123,44.8700888 C37.9569328,46.478558 36.5991528,47.9874982 35.3641771,49.4009105 C34.1296966,50.8138226 32.8536211,52.0896948 31.536941,53.225026 C30.2202608,54.3613575 28.7926606,55.3446443 27.2566163,56.1753866 C25.720572,57.0071293 23.9369383,57.5887989 21.9072008,57.921396 C19.1094412,58.531574 16.7766543,58.3785293 14.9123065,57.4637625 C13.0454828,56.5499959 11.5233035,55.0530593 10.344283,52.9749531 C9.16328182,50.8968469 8.2174905,48.3065913 7.503938,45.2021857 C6.79088067,42.0992806 6.15853747,38.6637784 5.61086983,34.8941788 C4.67745799,35.0057113 3.90943582,35.1852637 3.30680335,35.4348365 C2.70219016,35.6844093 1.90792353,36.1415427 0.919546843,36.8062366 C0.480323338,36.7512205 0.31592401,36.5151517 0.426348859,36.0995304 C0.534792994,35.6839092 0.823482176,35.1847636 1.29043569,34.6030939 C1.75590366,34.0214242 2.33229167,33.4117464 3.01811417,32.7745605 C3.70393667,32.1378748 4.37688452,31.5977172 5.03547219,31.1535877 C4.70568317,28.881925 4.38975916,26.5127339 4.08819534,24.0460143 C3.78564115,21.5812954 3.49843751,19.2251081 3.22410851,16.9804533 C2.94928433,14.7357985 2.74279481,12.7137087 2.60662067,10.9121831 C2.46846581,9.11165792 2.40112151,7.74025787 2.40112151,6.79698271 C2.72992017,6.63093428 2.97651916,6.5058978 3.14190884,6.42287358 C3.30630817,6.33984937 3.48308697,6.27082923 3.67620666,6.21481289 C3.86784081,6.16079714 4.1005748,6.11928503 4.37688452,6.09027656 C4.65071834,6.06326869 5.08895148,6.02175658 5.69356468,5.96574024 C5.80200881,6.24332121 5.87034347,6.63093428 5.89906384,7.12907959 C5.92629866,7.62822519 5.94016367,8.07235475 5.94016367,8.45896752 C8.73792331,7.73975773 11.261354,7.04605537 13.511446,6.38086133 C15.761538,5.71566729 17.95617,5.06497748 20.0968275,4.42729146 C22.2364946,3.79110588 24.4033966,3.15291972 26.5975334,2.51523371 C28.7916702,1.87904813 31.2066568,1.22685788 33.8410074,0.56166384 C34.2792406,0.451631743 34.7050943,0.437127512 35.1155974,0.520151731 C35.5275861,0.603676095 35.8697546,0.742716654 36.1450739,0.936273116 C36.4189077,1.13082987 36.6105419,1.31038225 36.7214619,1.47643068 C36.8318868,1.64397956 36.8041568,1.75601224 36.6397574,1.81002799 L36.6397574,1.81002799 Z" id="Shape"></path>
                    <path d="M41.6598791,33.3152182 C41.6598791,34.8676711 41.6450237,36.4196238 41.6187793,37.9705762 C41.5905541,39.5230291 41.5628241,41.0189654 41.5365796,42.4598858 C41.5083544,43.9018064 41.4806244,45.2587022 41.4543799,46.5330739 C41.4261547,47.8089461 41.3850549,48.9442773 41.3300901,49.9415682 C41.3300901,49.7210039 41.4543799,49.1803462 41.7009789,48.3205954 C41.9475779,47.4618449 42.2897464,46.478558 42.7304554,45.3697346 C43.1686886,44.2614113 43.6480216,43.0835677 44.1704351,41.836704 C44.6908679,40.5898403 45.2533909,39.4820171 45.8570137,38.5117341 C46.4606366,37.5429515 47.0781244,36.7807291 47.7089821,36.2255672 C48.3388494,35.6724058 48.9300927,35.5063574 49.4787507,35.7269217 C50.685006,36.2810834 51.5362182,37.085318 52.0304066,38.1376249 C52.5236046,39.1909322 52.8806284,40.3967839 53.0994974,41.7536798 C53.3188615,43.1125762 53.5387209,44.6215163 53.758085,46.2845014 C53.9774492,47.9474865 54.4711424,49.6924956 55.2401549,51.5210289 C55.5689535,52.3527716 56.0482865,52.9629496 56.6801345,53.3500625 C57.3100019,53.7386758 57.914615,54.0152565 58.491003,54.181305 C59.0664007,54.3478535 59.5318687,54.445382 59.8898829,54.4723899 C60.2459164,54.5008982 60.3692159,54.5974263 60.2597814,54.7634748 C58.8881364,55.816782 57.7081255,56.1763869 56.7212344,55.8437899 C55.7328577,55.5111929 54.8965009,54.7774789 54.2106784,53.6411474 C53.5238655,52.5058162 52.9623329,51.1469198 52.5231094,49.5674591 C52.0838859,47.9884985 51.6867526,46.4645539 51.3307191,44.9956255 C50.9727049,43.5276972 50.6577712,42.2808335 50.3834422,41.2545342 C50.108618,40.2297352 49.8070542,39.7170857 49.4787507,39.7170857 C48.9845624,39.773102 48.4492742,40.2442394 47.8733814,41.1299978 C47.2979837,42.0167565 46.7072356,43.1250798 46.1046031,44.4549677 C45.4999899,45.7848557 44.9236019,47.2397801 44.3759342,48.8192408 C43.8272762,50.3987016 43.3192229,51.8821343 42.8537549,53.2670383 C42.3872966,54.6529425 42.0164077,55.8437899 41.7425739,56.8410808 C41.4677498,57.8383717 41.3033504,58.44955 41.2483856,58.6701144 C40.4253986,58.6701144 39.9178404,58.6971222 39.7262063,58.7531386 C39.5335818,58.8081546 39.2186481,58.5325742 38.780415,57.9218961 C39.0542488,53.0459738 39.1503134,48.4321279 39.0681138,44.0808586 C38.9859141,39.7310898 38.8626146,35.9484864 38.6972249,32.7340487 C38.6972249,32.2349031 38.8215148,31.9853303 39.0681138,31.9853303 C39.3147128,31.9853303 39.5885466,32.0968628 39.8911008,32.3179273 C40.1921694,32.5404922 40.5085886,32.7620569 40.8383776,32.9831213 C41.1656907,33.2051861 41.4395246,33.3152182 41.6598791,33.3152182 L41.6598791,33.3152182 Z" id="Shape"></path>
                    <path d="M66.7614777,33.897388 C69.1200138,33.7313396 71.4389357,33.5522874 73.7162625,33.3572305 C75.9916086,33.163674 78.3664857,32.9556133 80.8344563,32.7335485 C81.3821239,32.7895649 81.7406333,33.0796495 81.9045375,33.6063031 C82.0689368,34.1334569 81.8495726,34.4520498 81.2459498,34.5620819 C79.2157171,34.7846469 76.8834254,35.0892357 74.2500651,35.4768488 C71.6162096,35.8654621 69.1195186,36.3636074 66.7609825,36.9727851 C66.870417,38.6912864 66.9253818,40.4518 66.9253818,42.2513249 C66.9253818,44.0533506 66.9664817,45.8258676 67.0486813,47.5713768 C67.1318713,49.3173861 67.2962707,51.0083794 67.5428697,52.642356 C67.790459,54.2778331 68.1875923,55.7882737 68.7362503,57.1726776 C69.5042725,58.1159527 70.2722946,58.6691141 71.0413072,58.8356627 C71.808339,59.0017111 72.5352613,58.960199 73.2220742,58.7106262 C73.9069063,58.4610534 74.5387543,58.0744406 75.1151423,57.5472868 C75.6915303,57.0211334 76.1980981,56.5079837 76.6373216,56.0093382 C77.0205899,55.6222253 77.3370091,55.6222253 77.5831129,56.0093382 C77.8307023,56.3979516 77.596978,56.9796212 76.8834254,57.7548474 C76.5546268,58.1434607 76.1426381,58.5585818 75.6499353,59.0017111 C75.155747,59.4448404 74.5649988,59.8189495 73.8801666,60.1235383 C73.1933538,60.427627 72.4253316,60.6226839 71.5751098,60.7057082 C70.7238976,60.7887324 69.8063315,60.6912039 68.8179548,60.4146232 C67.5547539,60.0820262 66.6223325,59.056227 66.0201952,57.3392261 C65.415582,55.6217251 64.9624935,53.6131392 64.6624152,51.3124681 C64.359861,49.0132974 64.154857,46.615598 64.0449273,44.1218706 C63.9345025,41.627643 63.797338,39.3839885 63.6329387,37.3889065 C61.2184473,37.6109713 59.4486787,37.8045278 58.324623,37.9705762 C57.199577,38.1371248 56.390455,38.2486573 55.8962667,38.3031732 C55.4030687,38.3591896 55.0732797,38.3316815 54.9093755,38.220149 C54.7449762,38.1101169 54.4429172,37.8605441 54.004684,37.4719308 C54.0586585,37.1953501 54.0720283,36.931273 54.0457839,36.6822004 C54.0175587,36.4326276 54.0175587,36.2245669 54.0457839,36.0585185 C54.0720283,35.8919699 54.1814628,35.7259214 54.3745825,35.5593728 C54.5662167,35.3933244 54.9371055,35.2557843 55.4857635,35.1437516 C56.3087505,34.9231873 57.5021312,34.7981508 59.0654103,34.7696425 C60.6296798,34.7426346 62.1518592,34.6175981 63.6334338,34.3955334 C63.578469,32.6225162 63.523009,31.2366119 63.4690345,30.2388208 C63.4130793,29.2415299 63.3586097,28.3682752 63.3046352,27.6200569 C63.24868,26.8718387 63.2075802,26.1386248 63.1813357,25.4174144 C63.1531105,24.6977044 63.1392455,23.7544293 63.1392455,22.5905898 C63.1392455,22.3140091 63.2897798,22.1059484 63.592334,21.9669079 C63.8934027,21.8293677 64.2370567,21.7463435 64.6218105,21.7173351 C65.0040885,21.6903272 65.3625978,21.7458434 65.6909013,21.8838836 C66.0206903,22.0229242 66.238569,22.2309849 66.349489,22.5075656 C66.5148787,23.006211 66.6233228,23.7414255 66.679278,24.7102081 C66.7332525,25.6804911 66.7738571,26.7052901 66.8025775,27.7861053 C66.8298123,28.8664205 66.8436773,29.96174 66.8436773,31.0695631 C66.8436773,32.1808873 66.8154522,33.1221619 66.7614777,33.897388 L66.7614777,33.897388 Z" id="Shape"></path>
                    <path d="M84.1268995,35.1447519 C84.2922891,35.0897359 84.7567668,34.9366912 85.5257793,34.6876186 C86.2938014,34.4380458 86.9256495,34.3965336 87.4188474,34.5625821 C89.0093614,34.5085663 90.2304721,34.9236874 91.0816843,35.8094458 C91.9319061,36.6962045 92.0002408,38.4147058 91.2871834,40.9629491 C90.2443371,43.7897737 88.8598175,46.145961 87.1311486,48.0290103 C85.4024798,49.91356 83.3578869,51.7155857 80.999846,53.4320864 C81.5475136,54.874007 82.3705006,55.6767412 83.4683118,55.8427896 C84.566123,56.0093382 85.7174134,55.8297858 86.9256495,55.3026321 C88.1319048,54.7764786 89.3119156,54.0697724 90.4641964,53.1825136 C91.6164773,52.2967552 92.5488988,51.5200287 93.2619561,50.8548346 C94.4142369,49.8575437 95.3332886,49.0127973 96.0191111,48.3195951 C96.7049336,47.626893 97.4318559,46.7816464 98.2008684,45.7838554 C98.3652677,45.6738233 98.4598469,45.6873272 98.4885672,45.8253675 C98.5158021,45.964408 98.5014419,46.1724687 98.4474674,46.4490494 C98.3925026,46.7271305 98.3103029,47.1142435 98.2008684,47.6128889 C98.0364691,48.0015023 97.8710794,48.3476032 97.7066801,48.6516919 C97.5422808,48.9567809 97.3085564,49.2888778 97.0069926,49.6489829 C96.7044384,50.009588 96.3073051,50.4387132 95.8136119,50.9373587 C95.3194236,51.4360041 94.7158007,52.100698 94.0027434,52.9324407 C93.1797564,53.7091672 92.3844994,54.4698891 91.6164773,55.2186075 C90.8474647,55.9668258 90.0383428,56.6185159 89.1881209,57.1716773 C88.3369087,57.7263391 87.4044873,58.1149524 86.3903613,58.3355168 C85.3737594,58.5575815 84.2086039,58.5575815 82.8919238,58.3355168 C81.7941126,57.9484038 80.9166559,57.5327826 80.2580683,57.088653 C79.5994806,56.6460239 79.0919224,56.1883904 78.735889,55.717253 C78.3788651,55.2471159 78.1184011,54.8169904 77.9540018,54.4288772 C77.7896025,54.0422644 77.6791776,53.7096674 77.6242128,53.4315863 C77.3493886,52.3237631 77.2394589,50.8273266 77.2954141,48.9427769 C77.3488934,47.0592274 77.8980466,44.6200159 78.9408929,41.6271428 C79.6539503,40.0761904 80.4229628,38.7598064 81.2459498,37.6789912 C82.069432,36.5991762 83.0290883,35.7549299 84.1268995,35.1447519 L84.1268995,35.1447519 Z M80.5061528,49.8580438 C81.2182198,49.4714311 82.055567,48.9307734 83.0167088,48.237071 C83.9753748,47.5448691 84.8815518,46.7411346 85.732764,45.8263678 C86.5829858,44.9116009 87.3232779,43.9013062 87.9546308,42.7924828 C88.5844981,41.6841595 88.9281521,40.5208201 88.9841073,39.3009643 C89.1485066,38.4697218 89.1197863,37.8880521 88.9019076,37.5554551 C88.7914828,37.3894067 88.6815531,37.3058823 88.5721186,37.3058823 C87.6387068,36.8632532 86.7062853,37.0022938 85.774359,37.7220037 C84.8409471,38.4427139 83.9907253,39.4675129 83.2227031,40.7974008 C82.4536906,42.1272887 81.808968,43.6107215 81.2885352,45.2446981 C80.7651313,46.879675 80.5061528,48.4176237 80.5061528,49.8580438 L80.5061528,49.8580438 Z" id="Shape"></path>
                    <path d="M97.5437663,32.4014517 C97.4888015,31.9023061 97.7502558,31.7777697 98.3266438,32.0268424 C98.9020415,32.2764152 99.4917993,32.5399921 100.095422,32.8170729 C100.314786,34.0924449 100.47869,35.1032398 100.58961,35.8509579 C100.699045,36.5991762 100.781245,37.3053822 100.836209,37.9705762 C100.891174,38.6357702 100.945644,39.3564805 101.001599,40.1322068 C101.055078,40.9089333 101.137278,41.9337323 101.248198,43.2076039 C101.742386,41.9332321 102.345019,40.7553886 103.059067,39.6750734 C103.771134,38.5942581 104.69068,37.6664875 105.816222,36.8897609 C106.940277,36.1145348 108.285678,35.5468692 109.848957,35.1857639 C111.413226,34.826159 113.291439,34.7011225 115.487062,34.8116547 C115.487062,35.2557843 115.335537,35.6298934 115.033973,35.933482 C114.731419,36.2390711 114.032227,36.4741397 112.935406,36.6401881 C111.343406,36.9182692 109.958391,37.458927 108.779371,38.261161 C107.59837,39.0653956 106.583749,39.9941665 105.734022,41.0464735 C104.88281,42.0997807 104.196987,43.2221081 103.676554,44.4129555 C103.154141,45.6053033 102.729278,46.6991224 102.400974,47.6964133 C102.345019,48.1950587 102.277675,48.9012647 102.194485,49.8160316 C102.112285,50.7307984 102.05732,51.7010815 102.030085,52.7258804 C102.00186,53.7521798 101.97512,54.7494707 101.947886,55.7182533 C101.91966,56.6885363 101.96076,57.4512588 102.071185,58.0044202 C102.12615,58.2820012 102.00186,58.4900618 101.701287,58.6281021 C101.398732,58.7661424 101.055574,58.8631707 100.67181,58.919187 C100.287056,58.9732028 99.9310228,58.9461949 99.6027193,58.8361628 C99.2729303,58.7246303 99.108531,58.5320741 99.108531,58.253993 C99.2179655,52.546328 99.0674311,47.6273932 98.6554425,43.4986888 C98.2434538,39.3709847 97.8735553,35.6719057 97.5437663,32.4014517 L97.5437663,32.4014517 Z" id="Shape"></path>
                    <path d="M130.134943,34.2299851 C130.078987,34.5625821 129.955688,35.2562844 129.764054,36.3080913 C129.571429,37.3613985 129.36593,38.5942581 129.146566,40.0076704 C128.927202,41.4205826 128.735568,42.9040153 128.570178,44.4549677 C128.405779,46.0074206 128.310209,47.4763491 128.282479,48.8607529 C128.254254,50.2466572 128.335958,51.4250009 128.529078,52.3937835 C128.720712,53.3640666 129.035646,53.9602405 129.476355,54.1808048 C130.737575,54.791483 132.028011,54.5834223 133.344691,53.557623 C134.661371,52.5323239 136.196425,50.9673674 137.953814,48.8602528 C138.118214,48.8602528 138.130593,49.0828177 137.994914,49.5254468 C137.856759,49.9695764 137.6369,50.4542177 137.336327,50.9803712 C137.033772,51.507525 136.731713,52.0336785 136.430149,52.559832 C136.127595,53.0869857 135.895852,53.4320864 135.730462,53.598635 C135.291238,54.1527966 134.661371,54.7764786 133.837394,55.4686805 C133.014407,56.1623828 132.13596,56.7155442 131.203538,57.1311654 C130.270126,57.5472868 129.378805,57.7273394 128.528583,57.6718232 C127.677371,57.6168071 126.977683,57.1186618 126.430016,56.1753866 C126.155191,55.5101926 125.990792,54.6939545 125.935827,53.7231713 C125.880862,52.7543887 125.880862,51.7696015 125.935827,50.7723105 C125.990792,49.7750196 126.072992,48.8602528 126.183417,48.0290103 C126.291861,47.1972677 126.375051,46.58809 126.430016,46.1999768 C125.277735,48.3616073 123.960559,50.4127056 122.47948,52.3517713 C120.998401,54.2918372 119.543566,55.8157817 118.116956,56.924105 C116.689355,58.0334286 115.372675,58.6281021 114.16642,58.7111263 C112.959174,58.7941505 112.026753,58.0874444 111.36866,56.591508 C110.985392,55.1505877 110.985392,53.5296149 111.36866,51.7285895 C111.753414,49.9280643 112.329307,48.3070914 113.097329,46.865671 C114.24961,44.870589 115.455865,43.0420556 116.718076,41.3795706 C117.980286,39.7170857 119.323211,38.3036734 120.750811,37.1398339 C122.177421,35.9759944 123.673356,35.131248 125.236635,34.6040942 C126.8014,34.0779407 128.433509,33.9534044 130.134943,34.2299851 L130.134943,34.2299851 Z M114.661599,55.3446443 C115.209266,55.4561768 116.088209,55.0410558 117.295454,54.0977806 C118.50171,53.1560059 119.76491,51.8406222 121.081591,50.1491288 C122.398271,48.4596359 123.592147,46.4915618 124.661237,44.246907 C125.731319,42.0027524 126.431006,39.6330612 126.760795,37.1398339 L125.813518,37.1398339 C125.40252,37.1398339 124.921206,37.3058823 124.373539,37.6384793 C122.287846,39.0243836 120.505203,40.6453565 119.024123,42.5013979 C117.543044,44.3584396 116.390268,46.1589648 115.567776,47.904474 C114.743798,49.6504833 114.251096,51.2169402 114.085706,52.6018442 C113.920811,53.9872484 114.112446,54.901515 114.661599,55.3446443 L114.661599,55.3446443 Z" id="Shape"></path>
                    <path d="M145.7712,33.897388 C148.129737,33.7313396 150.448658,33.5522874 152.725985,33.3572305 C155.001331,33.163674 157.376208,32.9556133 159.844179,32.7335485 C160.391847,32.7895649 160.750356,33.0796495 160.91426,33.6063031 C161.07866,34.1334569 160.859295,34.4520498 160.255673,34.5620819 C158.22544,34.7846469 155.893148,35.0892357 153.259788,35.4768488 C150.625932,35.8654621 148.129241,36.3636074 145.770705,36.9727851 C145.88014,38.6912864 145.935105,40.4518 145.935105,42.2513249 C145.935105,44.0533506 145.976204,45.8258676 146.058404,47.5713768 C146.141594,49.3173861 146.305993,51.0083794 146.552592,52.642356 C146.800182,54.2778331 147.197315,55.7882737 147.745973,57.1726776 C148.513995,58.1159527 149.282017,58.6691141 150.05103,58.8356627 C150.818062,59.0017111 151.544984,58.960199 152.231797,58.7106262 C152.916629,58.4610534 153.548477,58.0744406 154.124865,57.5472868 C154.701253,57.0211334 155.207821,56.5079837 155.647044,56.0093382 C156.030313,55.6222253 156.346732,55.6222253 156.592836,56.0093382 C156.840425,56.3979516 156.606701,56.9796212 155.893148,57.7548474 C155.56435,58.1434607 155.152361,58.5585818 154.659658,59.0017111 C154.16547,59.4448404 153.574722,59.8189495 152.889889,60.1235383 C152.203077,60.427627 151.435054,60.6226839 150.584833,60.7057082 C149.73362,60.7887324 148.816054,60.6912039 147.827678,60.4146232 C146.564477,60.0820262 145.632055,59.056227 145.029918,57.3392261 C144.425305,55.6217251 143.972216,53.6131392 143.672138,51.3124681 C143.369584,49.0132974 143.16458,46.615598 143.05465,44.1218706 C142.944225,41.627643 142.807061,39.3839885 142.642661,37.3889065 C140.22817,37.6109713 138.458401,37.8045278 137.334346,37.9705762 C136.2093,38.1371248 135.400178,38.2486573 134.905989,38.3031732 C134.412791,38.3591896 134.083002,38.3316815 133.919098,38.220149 C133.754699,38.1101169 133.45264,37.8605441 133.014407,37.4719308 C133.068381,37.1953501 133.081751,36.931273 133.055507,36.6822004 C133.027281,36.4326276 133.027281,36.2245669 133.055507,36.0585185 C133.081751,35.8919699 133.191186,35.7259214 133.384305,35.5593728 C133.575939,35.3933244 133.946828,35.2557843 134.495486,35.1437516 C135.318473,34.9231873 136.511854,34.7981508 138.075133,34.7696425 C139.639403,34.7426346 141.161582,34.6175981 142.643157,34.3955334 C142.588192,32.6225162 142.532732,31.2366119 142.478757,30.2388208 C142.422802,29.2415299 142.368332,28.3682752 142.314358,27.6200569 C142.258403,26.8718387 142.217303,26.1386248 142.191058,25.4174144 C142.162833,24.6977044 142.148968,23.7544293 142.148968,22.5905898 C142.148968,22.3140091 142.299503,22.1059484 142.602057,21.9669079 C142.903125,21.8293677 143.246779,21.7463435 143.631533,21.7173351 C144.013811,21.6903272 144.372321,21.7458434 144.700624,21.8838836 C145.030413,22.0229242 145.248292,22.2309849 145.359212,22.5075656 C145.524601,23.006211 145.633046,23.7414255 145.689001,24.7102081 C145.742975,25.6804911 145.78358,26.7052901 145.8123,27.7861053 C145.839535,28.8664205 145.8534,29.96174 145.8534,31.0695631 C145.8534,32.1808873 145.825175,33.1221619 145.7712,33.897388 L145.7712,33.897388 Z" id="Shape"></path>
                    <path d="M163.136622,35.1447519 C163.302012,35.0897359 163.76649,34.9366912 164.535502,34.6876186 C165.303524,34.4380458 165.935372,34.3965336 166.42857,34.5625821 C168.019084,34.5085663 169.240195,34.9236874 170.091407,35.8094458 C170.941629,36.6962045 171.009964,38.4147058 170.296906,40.9629491 C169.25406,43.7897737 167.86954,46.145961 166.140871,48.0290103 C164.412203,49.91356 162.367115,51.7155857 160.009569,53.4320864 C160.557236,54.874007 161.380223,55.6767412 162.478035,55.8427896 C163.575846,56.0093382 164.727136,55.8297858 165.935372,55.3026321 C167.141628,54.7764786 168.321638,54.0697724 169.473919,53.1825136 C170.6262,52.2967552 171.558622,51.5200287 172.271679,50.8548346 C173.42396,49.8575437 174.343011,49.0127973 175.028834,48.3195951 C175.714656,47.626893 176.441579,46.7816464 177.210591,45.7838554 C177.374991,45.6738233 177.46957,45.6873272 177.49829,45.8253675 C177.525525,45.964408 177.511165,46.1724687 177.45719,46.4490494 C177.402225,46.7271305 177.320026,47.1142435 177.210591,47.6128889 C177.046192,48.0015023 176.880802,48.3476032 176.716403,48.6516919 C176.552004,48.9567809 176.318279,49.2888778 176.016715,49.6489829 C175.714161,50.009588 175.317028,50.4387132 174.823335,50.9373587 C174.329146,51.4360041 173.725524,52.100698 173.012466,52.9324407 C172.189479,53.7091672 171.394222,54.4698891 170.6262,55.2186075 C169.857188,55.9668258 169.048066,56.6185159 168.197844,57.1716773 C167.346632,57.7263391 166.41421,58.1149524 165.400084,58.3355168 C164.383482,58.5575815 163.218327,58.5575815 161.901647,58.3355168 C160.803835,57.9484038 159.926379,57.5327826 159.267791,57.088653 C158.609203,56.6460239 158.101645,56.1883904 157.745612,55.717253 C157.388588,55.2471159 157.128124,54.8169904 156.963725,54.4288772 C156.799325,54.0422644 156.6889,53.7096674 156.633936,53.4315863 C156.359111,52.3237631 156.249182,50.8273266 156.305137,48.9427769 C156.358616,47.0592274 156.907769,44.6200159 157.950616,41.6271428 C158.663673,40.0761904 159.432686,38.7598064 160.255673,37.6789912 C161.079155,36.5991762 162.038811,35.7549299 163.136622,35.1447519 L163.136622,35.1447519 Z M159.515876,49.8580438 C160.227943,49.4714311 161.06529,48.9307734 162.026432,48.237071 C162.985098,47.5448691 163.891275,46.7411346 164.742487,45.8263678 C165.592709,44.9116009 166.333001,43.9013062 166.964354,42.7924828 C167.594221,41.6841595 167.937875,40.5208201 167.993335,39.3009643 C168.157734,38.4697218 168.129014,37.8880521 167.911135,37.5554551 C167.80071,37.3894067 167.690781,37.3058823 167.581346,37.3058823 C166.647934,36.8632532 165.715513,37.0022938 164.783587,37.7220037 C163.850175,38.4427139 162.999953,39.4675129 162.231931,40.7974008 C161.462918,42.1272887 160.818196,43.6107215 160.297763,45.2446981 C159.774854,46.879675 159.515876,48.4176237 159.515876,49.8580438 L159.515876,49.8580438 Z" id="Shape"></path>
                </g>
                <g id="Group" transform="translate(187.000000, 0.000000)">
                    <g id="Shape">
                        <path d="M1.96972616,11.5101375 L15.906918,147.712849 L15.906918,170.314401 C15.906918,170.314401 26.3306114,173.796438 40.2016984,173.796438 C54.0727854,173.796438 64.4964788,170.314401 64.4964788,170.314401 L64.4964788,147.71734 L79.3154002,11.5096384 L79.3154002,1.84507558 L1.96972616,1.84507558 L1.96972616,11.5101375 L1.96972616,11.5101375 Z" fill="#FFFFFF"></path>
                        <path d="M40.2016984,175.289168 C26.2500927,175.289168 15.872126,171.876002 15.4372255,171.730772 L14.4203041,171.391402 L14.4203041,147.790205 L0.483112245,11.5869948 L0.483112245,0.353843275 L80.80102,0.353843275 L80.7920735,11.6723364 L65.9820986,147.798689 L65.9820986,171.391402 L64.9651772,171.730772 C64.5312708,171.876002 54.1533041,175.289168 40.2016984,175.289168 L40.2016984,175.289168 Z M17.3930349,169.206457 C20.3100984,170.044901 29.1959839,172.304707 40.2021954,172.304707 C51.2084069,172.304707 60.0942924,170.044901 63.0113559,169.206457 L63.0203025,147.555141 L77.8302773,11.4287884 L77.8302773,3.33730604 L3.45584305,3.33730604 L3.45584305,11.4332801 L17.3930349,147.63649 L17.3930349,169.206457 L17.3930349,169.206457 Z" fill="#009FEA"></path>
                    </g>
                    <rect id="Rectangle-path" fill="#009FEA" x="28.8296735" y="28.3029704" width="22.7440497" height="28.8474598"></rect>
                    <rect id="Rectangle-path" fill="#009FEA" x="1.96972616" y="10.7645213" width="77.346171" height="1.49223046"></rect>
                    <path d="M39.7066574,150.655886 C27.2118439,150.655886 15.8780903,148.467947 15.7647677,148.445988 L16.0490683,146.981206 C16.1604028,147.003166 27.3604556,149.164155 39.7066574,149.164155 C52.065285,149.164155 64.2449821,147.005661 64.3662572,146.983702 L64.6276944,148.452476 C64.5044312,148.473936 52.1955066,150.655886 39.7066574,150.655886 L39.7066574,150.655886 Z" id="Shape" fill="#009FEA"></path>
                </g>
                <g id="Group" transform="translate(181.000000, 44.000000)">
                    <polygon id="Shape" fill="#FFFFFF" points="26.0159399 21.2346831 15.7071427 20.8108612 6.79848077 26.0164651 7.22177744 15.7071427 2.01669881 6.79900595 12.325496 7.22230263 21.2341579 2.017224 20.8108612 12.3260211"></polygon>
                    <path d="M5.67354096,27.8855877 L6.16301057,15.9707841 L0.147050955,5.67459132 L12.0618546,6.16353575 L22.3580474,0.147576137 L21.8691029,12.0623798 L27.8850626,22.3585725 L15.9702589,21.8696281 L5.67354096,27.8855877 L5.67354096,27.8855877 Z M3.88582149,7.92342057 L8.28054432,15.4440266 L7.92289539,24.1468172 L15.4440266,19.7526196 L24.1468172,20.1097433 L19.7520944,12.5891373 L20.1092181,3.88582149 L12.5886121,8.28001914 L3.88582149,7.92342057 L3.88582149,7.92342057 Z" id="Shape" fill="#009FEA"></path>
                </g>
                <g id="Group" transform="translate(122.000000, 15.000000)">
                    <polygon id="Shape" fill="#FFFFFF" points="10.7676806 19.0536624 7.84009448 13.6208196 2.47194036 10.6414539 7.85254381 7.68571791 10.8040326 2.26594692 13.7316187 7.69878971 19.0992749 10.6781555 13.7186714 13.6338914"></polygon>
                    <path d="M10.7631988,21.1416317 L7.10707751,14.3573655 L0.403358519,10.6364263 L7.12251469,6.94514994 L10.8085144,0.177474876 L14.4636397,6.96174108 L21.1678567,10.6826803 L14.4482026,14.3739566 L10.7631988,21.1416317 L10.7631988,21.1416317 Z M4.5405222,10.6459787 L8.57261347,12.8842738 L10.7721623,16.9651904 L12.9891403,12.8938262 L17.031689,10.6736306 L12.9990997,8.43533559 L10.7995509,4.35441897 L8.58257294,8.42578311 L4.5405222,10.6459787 L4.5405222,10.6459787 Z" id="Shape" fill="#009FEA"></path>
                </g>
                <g id="Group" transform="translate(245.000000, 97.000000)">
                    <polygon id="Shape" fill="#FFFFFF" points="14.1442503 26.2492101 9.93591971 18.5148971 2.22073311 14.2734829 9.9545292 10.0656692 14.1964603 2.34996571 18.4042739 10.0842787 26.1199775 14.3256929 18.3856644 18.5335065"></polygon>
                    <path d="M14.1395979,28.3965391 L9.17551505,19.2727171 L0.0734041204,14.2683136 L9.19722613,9.30423073 L14.2011126,0.202119796 L19.1651955,9.32594181 L28.2678234,14.3298283 L19.1440014,19.2944281 L14.1395979,28.3965391 L14.1395979,28.3965391 Z M4.36754517,14.2776184 L10.6963244,17.757594 L14.1478688,24.1018811 L17.6278444,17.7731019 L23.9721316,14.3210405 L17.6428354,10.8415818 L14.191291,4.4972947 L10.7118323,10.8260739 L4.36754517,14.2776184 L4.36754517,14.2776184 Z" id="Shape" fill="#009FEA"></path>
                </g>
                <path d="M99.4877136,65.0829338 C99.4877136,65.0829338 99.3726802,65.2016198 99.1716262,65.4097266 C99.0708447,65.51378 98.9491943,65.6400532 98.8087109,65.7847525 C98.6824796,65.9234904 98.5028034,66.0974547 98.2727366,66.2968904 C98.0564126,66.4865711 97.8227828,66.6914263 97.574901,66.9087462 C97.3300732,67.12715 97.0618315,67.2826882 96.7925718,67.4799562 C96.2652504,67.8777437 95.6452914,68.1958654 95.0543453,68.5329551 C94.4282784,68.8136826 93.8352963,69.1274687 93.2295892,69.3084783 C92.6447511,69.5295918 92.0833268,69.6726653 91.6007972,69.7718412 C91.1299745,69.901908 90.7131055,69.9105791 90.4367199,69.9517669 C90.1588072,69.9826578 90,70 90,70 C90,70 90.1460823,69.9290052 90.401599,69.8043579 C90.6525348,69.6699555 91.021558,69.5323015 91.4201031,69.2531999 C91.8293371,69.006073 92.2884528,68.6982483 92.7460416,68.3134674 C93.2214453,67.9704163 93.6617281,67.4951306 94.1116819,67.0740394 C94.5270239,66.5971279 94.9550908,66.1559847 95.2798312,65.6725699 C95.4422014,65.4389916 95.6325665,65.2216717 95.7481089,65.0070615 C95.8687413,64.7989547 95.9827568,64.6022287 96.0881192,64.4212191 C96.1909367,64.2597195 96.2881553,64.0781679 96.3792658,63.8765644 C96.4683404,63.6917612 96.546217,63.5308036 96.6098417,63.3980271 C96.7376001,63.1324741 96.8108957,62.9812714 96.8108957,62.9812714 L96.8134407,62.975852 C97.2389626,62.0935657 98.2549217,61.745637 99.0835696,62.198703 C99.9117086,62.6517689 100.238994,63.733491 99.813472,64.6157773 C99.7284695,64.7913675 99.613945,64.9512412 99.4877136,65.0829338 L99.4877136,65.0829338 Z" id="Shape" fill="#2CA4DD"></path>
            </g>
        </g>
    </g>
</svg>